<?xml version="1.0" standalone="no"?>
<!DOCTYPE svg PUBLIC "-//W3C//DTD SVG 20010904//EN"
 "http://www.w3.org/TR/2001/REC-SVG-20010904/DTD/svg10.dtd">
<svg version="1.0" xmlns="http://www.w3.org/2000/svg"
 width="225.000000pt" height="225.000000pt" viewBox="0 0 225.000000 225.000000"
 preserveAspectRatio="xMidYMid meet">

<g transform="translate(0.000000,225.000000) scale(0.100000,-0.100000)"
fill="#000000" stroke="none">
<path d="M1353 1925 c-12 -8 -24 -29 -28 -45 l-7 -30 -380 0 c-367 0 -381 -1
-409 -20 -29 -21 -49 -71 -49 -122 0 -28 -1 -28 -67 -28 -79 0 -121 -20 -153
-72 -19 -32 -20 -52 -20 -528 0 -461 1 -498 18 -529 26 -49 73 -71 149 -71
l63 0 0 -53 c0 -64 18 -93 69 -108 32 -9 44 -8 73 5 42 20 58 51 58 111 l0 45
374 0 374 0 7 -30 c8 -38 48 -86 88 -107 40 -20 124 -20 164 0 40 21 83 72 90
108 5 28 7 29 70 29 70 0 104 13 143 55 l25 27 3 506 c2 492 2 508 -18 540
-28 46 -76 72 -132 72 l-48 0 0 35 c0 43 -20 94 -45 115 -12 10 -49 17 -108
20 l-91 5 -8 30 c-4 16 -15 36 -25 42 -24 19 -153 17 -180 -2z m157 -55 c0
-18 -7 -20 -64 -20 -63 0 -84 9 -71 30 3 6 35 10 71 10 57 0 64 -2 64 -20z
m234 -92 c9 -12 16 -39 16 -60 l0 -38 -610 0 -610 0 0 44 c0 81 -41 76 610 76
l579 0 15 -22z m-422 -595 l3 -448 318 -3 317 -2 0 -71 c0 -65 -2 -73 -29
-100 -27 -26 -36 -29 -94 -29 -62 0 -65 1 -72 27 -40 162 -300 162 -340 0 l-7
-27 -535 0 -535 0 -29 29 -29 29 0 492 0 492 29 29 29 29 486 0 486 0 2 -447z
m609 418 l29 -29 0 -396 0 -396 -295 0 -295 0 0 425 0 425 266 0 266 0 29 -29z
m-246 -1005 c57 -61 53 -144 -11 -192 -85 -65 -205 -7 -206 100 -2 78 50 125
136 126 43 0 53 -4 81 -34z m-1067 -162 c4 -53 -25 -83 -66 -68 -24 8 -27 15
-30 62 l-3 53 48 -3 48 -3 3 -41z"/>
<path d="M822 1548 c3 -22 7 -23 114 -26 89 -2 114 0 123 12 24 29 1 36 -120
36 -119 0 -120 0 -117 -22z"/>
<path d="M511 1482 c-19 -9 -44 -30 -55 -45 -20 -27 -21 -43 -24 -315 -2 -258
-1 -290 15 -321 24 -47 62 -72 114 -78 60 -6 108 21 137 77 21 43 22 54 22
310 0 256 -1 267 -22 310 -38 73 -115 99 -187 62z m108 -47 c49 -25 52 -48 49
-344 l-3 -273 -28 -24 c-42 -36 -98 -33 -131 7 l-26 31 0 277 c0 238 2 280 16
299 28 41 77 52 123 27z"/>
<path d="M827 1463 c-4 -3 -7 -15 -7 -25 0 -16 10 -18 119 -18 121 0 144 7
121 35 -10 12 -38 15 -120 15 -58 0 -110 -3 -113 -7z"/>
<path d="M943 1276 c-89 -40 -96 -170 -13 -220 99 -58 216 38 180 148 -21 65
-103 100 -167 72z m95 -52 c33 -23 27 -32 -20 -36 -35 -2 -43 -7 -43 -23 0
-16 8 -21 43 -23 47 -4 53 -13 20 -36 -31 -22 -68 -20 -95 6 -31 29 -30 72 2
103 28 29 61 32 93 9z"/>
<path d="M932 956 c-78 -43 -81 -161 -7 -210 34 -22 105 -23 138 -1 28 18 57
71 57 105 0 30 -25 75 -56 99 -31 24 -96 28 -132 7z m117 -62 c34 -43 24 -86
-26 -113 -47 -25 -103 14 -103 71 0 65 89 93 129 42z"/>
<path d="M420 635 c-6 -8 -9 -19 -5 -25 4 -7 131 -10 381 -10 360 0 374 1 374
19 0 10 -7 22 -16 25 -9 3 -174 6 -369 6 -296 0 -354 -2 -365 -15z"/>
<path d="M1667 1543 c-2 -4 -48 -89 -102 -187 -92 -168 -97 -180 -80 -193 11
-7 38 -13 62 -13 24 0 43 -2 43 -3 0 -2 -27 -69 -59 -148 -52 -126 -58 -146
-45 -159 18 -18 7 -29 223 229 94 113 171 213 171 223 0 15 -9 18 -60 18 -33
0 -60 3 -60 6 0 3 25 48 56 100 30 52 54 102 52 112 -3 14 -18 17 -100 20 -53
1 -98 -1 -101 -5z m133 -49 c0 -3 -25 -49 -56 -101 -30 -52 -54 -102 -52 -111
2 -13 17 -18 54 -22 l52 -5 -101 -122 c-56 -67 -102 -121 -104 -119 -2 1 10
36 27 76 43 105 42 110 -25 110 -30 0 -55 2 -55 5 0 5 88 167 137 253 23 41
26 42 73 42 28 0 50 -3 50 -6z"/>
</g>
</svg>
